<svg xmlns="http://www.w3.org/2000/svg" xmlns:xlink="http://www.w3.org/1999/xlink" width="791.628" height="689.638" viewBox="0 0 791.628 689.638">
  <defs>
    <filter id="Subtraction_3" x="0" y="0" width="791.628" height="689.638" filterUnits="userSpaceOnUse">
      <feOffset input="SourceAlpha"/>
      <feGaussianBlur stdDeviation="5" result="blur"/>
      <feFlood flood-color="#9fe5ff"/>
      <feComposite operator="in" in2="blur"/>
      <feComposite in="SourceGraphic"/>
    </filter>
    <linearGradient id="linear-gradient" x1="0.5" x2="0.5" y2="1" gradientUnits="objectBoundingBox">
      <stop offset="0" stop-color="#fff"/>
      <stop offset="0.03" stop-color="#10a3d3"/>
      <stop offset="0.355" stop-color="#2f3c79"/>
      <stop offset="0.475" stop-color="#420044"/>
      <stop offset="0.566" stop-color="#810082"/>
      <stop offset="1" stop-color="#f0f"/>
    </linearGradient>
  </defs>
  <g id="Logo" transform="translate(-580.621 -262.788)">
    <g transform="matrix(1, 0, 0, 1, 580.62, 262.79)" filter="url(#Subtraction_3)">
      <g id="Subtraction_3-2" data-name="Subtraction 3" transform="translate(518 -103.43)" fill="#b1d9e8">
        <path d="M -122.4776916503906 777.070556640625 L -502.1343994140625 119.2687149047852 L 257.7615966796875 118.9331817626953 L -122.4776916503906 777.070556640625 Z M -490.8608093261719 125.4315032958984 L -490.427490234375 126.1819000244141 L -122.4501037597656 763.746826171875 L -122.0168075561523 764.4976196289063 L -121.5839080810547 763.74658203125 L 245.6761016845703 126.5958023071289 L 246.1078948974609 125.8466033935547 L 245.2431945800781 125.8460998535156 L -489.9942932128906 125.431999206543 L -490.8608093261719 125.4315032958984 Z" stroke="none"/>
        <path d="M -122.4774780273438 776.0704956054688 L 256.8949584960938 119.4335632324219 L -501.2686767578125 119.7683334350586 L -122.4774780273438 776.0704956054688 M -491.7268981933594 124.9309997558594 L -489.9940185546875 124.931999206543 L 245.2434997558594 125.3460998535156 L 246.9729919433594 125.3470993041992 L 246.1092987060547 126.8454971313477 L -121.1507034301758 763.9962768554688 L -122.0165023803711 765.4984130859375 L -122.8832015991211 763.996826171875 L -490.860595703125 126.4319000244141 L -491.7268981933594 124.9309997558594 M -122.4782028198242 778.07080078125 L -122.4779052734375 778.0703125 L -503 118.7691040039063 L 258.6280822753906 118.4328002929688 L -122.4779052734375 778.0703125 L -122.4782028198242 778.07080078125 Z M -489.9945068359375 125.931999206543 L -122.0171051025391 763.4968872070313 L 245.2428894042969 126.3460998535156 L -489.9945983886719 125.931999206543 L -489.9945068359375 125.931999206543 L -489.9945983886719 125.931999206543 Z" stroke="none" fill="#001f2a"/>
      </g>
    </g>
    <g id="Union_1" data-name="Union 1" transform="translate(1142.62 319.941)" fill="url(#linear-gradient)">
      <path d="M -165.9994049072266 563.9097290039063 L -501.268310546875 -16.79251480102539 L -364.4760437011719 -16.82258987426758 L -119.7703704833984 407.0201110839844 L -118.9042892456055 408.5202941894531 L -118.0382843017578 407.02001953125 L 126.6818695068359 -16.93175888061523 L 169.5265197753906 -16.94108963012695 L -165.9994049072266 563.9097290039063 Z M -118.0022430419922 377.14013671875 L -345.2705688476563 -16.50031661987305 L 109.5760650634766 -16.67978286743164 L -118.0022430419922 377.14013671875 Z" stroke="none"/>
      <path d="M -165.9991760253906 561.9100341796875 L 167.7937622070313 -15.94071197509766 L 127.2593612670898 -15.931884765625 L -117.1722030639648 407.5199584960938 L -118.9042053222656 410.5204467773438 L -120.6364517211914 407.5201110839844 L -365.0533752441406 -15.8224630355835 L -499.5364379882813 -15.79289436340332 L -165.9991760253906 561.9100341796875 M -118.0018157958984 375.1407775878906 L 107.8428344726563 -15.67909812927246 L -343.5388488769531 -15.50099945068359 L -118.0018157958984 375.1407775878906 M -165.9996185302734 565.9100952148438 L -165.9996185302734 565.9093017578125 L -503.0001220703125 -17.79213333129883 L -363.8987731933594 -17.82271575927734 L -118.9043731689453 406.5201110839844 L 126.104377746582 -17.93163299560547 L 171.2592163085938 -17.94146728515625 L -165.9996185302734 565.9093017578125 L -165.9996185302734 565.9100952148438 Z M -118.0026168823242 379.1394653320313 L -347.002197265625 -17.4996337890625 L 111.3092956542969 -17.68046569824219 L -118.0026168823242 379.1394653320313 Z" stroke="none" fill="#fff"/>
    </g>
  </g>
</svg>
